<svg xmlns="http://www.w3.org/2000/svg" xmlns:xlink="http://www.w3.org/1999/xlink" enable-background="new 0 0 502 502" height="502" width="502" style=""><rect id="backgroundrect" width="100%" height="100%" x="0" y="0" fill="none" stroke="none"/><linearGradient id="lg1"><stop offset="0" stop-color="#f2ae6f"/><stop offset="1" stop-color="#f2d1a5"/></linearGradient><linearGradient id="SVGID_1_" x1="0.5860177413670932" x2="0.09876723644672475" xlink:href="#lg1" y1="0.5000043011733465" y2="0.5000043011733465"/><linearGradient id="lg2"><stop offset="0" stop-color="#f9edaf"/><stop offset="1" stop-color="#fffcdd"/></linearGradient><linearGradient id="SVGID_2_" x1="0.5" x2="0.5" xlink:href="#lg2" y1="0.8507701517881767" y2="-0.10135853744031127"/><linearGradient id="SVGID_3_" x1="0.41397802850716314" x2="0.9012336229318363" xlink:href="#lg1" y1="0.5000043011733465" y2="0.5000043011733465"/><linearGradient id="SVGID_4_" x1="0.4999998754343914" x2="0.4999998754343914" xlink:href="#lg2" y1="0.8507701517881767" y2="-0.10135853744031127"/><linearGradient id="lg3"><stop offset="0" stop-color="#ec6f80"/><stop offset="1" stop-color="#eca0aa"/></linearGradient><linearGradient id="SVGID_5_" x1="0.6892910855138779" x2="0.13736283671836813" xlink:href="#lg3" y1="0.4999968039960509" y2="0.4999968039960509"/><linearGradient id="SVGID_6_" x1="0.31070398065836863" x2="0.8626371085236351" xlink:href="#lg3" y1="0.4999968039960509" y2="0.4999968039960509"/><linearGradient id="SVGID_7_" x1="0.5000000515189804" x2="0.5000000515189804" xlink:href="#lg3" y1="-0.15282636405926975" y2="0.8427766031233678"/><linearGradient id="SVGID_8_" x1="0.5000022431378376" x2="0.5000022431378376" xlink:href="#lg2" y1="0.48795693806160884" y2="0.7825826057901902"/><linearGradient id="SVGID_9_" x1="0.5000114400460832" x2="0.5000114400460832" xlink:href="#lg2" y1="0.48795693806160884" y2="0.7825826057901902"/><linearGradient id="SVGID_10_" x1="0.5" x2="0.5" xlink:href="#lg1" y1="1.380079686807907" y2="0.39493448615335713"/><linearGradient id="lg4"><stop offset="0" stop-color="#d4dbdb"/><stop offset="1" stop-color="#f3f3f3"/></linearGradient><linearGradient id="SVGID_11_" x1="0.4999998873344464" x2="0.4999998873344464" xlink:href="#lg4" y1="1.3436927470807563" y2="0.4723266695844107"/><linearGradient id="SVGID_12_" x1="0.49999883171704557" x2="0.49999883171704557" xlink:href="#lg4" y1="1.3189663217824916" y2="0.2418677953904705"/><linearGradient id="SVGID_13_" x1="0.5000001754260192" x2="0.5000001754260192" xlink:href="#lg2" y1="1.0111284419023525" y2="0.044515171017563304"/><g class="currentLayer" style=""><title>Layer 1</title><g id="svg_1"><path d="m115.887 213.71c0-27.8-22.536-50.336-50.336-50.336s-50.335 22.536-50.335 50.336c0 38.048 31.614 61.413 59.414 61.413s41.257-33.614 41.257-61.413z" fill="url(#SVGID_1_)" id="svg_2"/><circle cx="60.61899948120117" cy="266.0140075683594" fill="url(#SVGID_2_)" r="30.624000549316406" id="svg_3"/><path d="m386.113 213.71c0-27.8 22.536-50.336 50.336-50.336s50.336 22.536 50.336 50.336c0 38.048-31.614 61.413-59.414 61.413s-41.258-33.614-41.258-61.413z" fill="url(#SVGID_3_)" id="svg_4"/><circle cx="441.3810119628906" cy="266.0140075683594" fill="url(#SVGID_4_)" r="30.624000549316406" id="svg_5"/><path d="m158.496 344.447c-62.263 10.48-101.597 69.486-111.081 129.542-2.323 14.706 9.047 28.011 23.935 28.011h31.561l101.909-157.553z" fill="url(#SVGID_5_)" id="svg_6"/><path d="m343.504 344.447c62.263 10.48 101.597 69.486 111.081 129.542 2.323 14.706-9.047 28.011-23.935 28.011h-31.561l-101.908-157.553z" fill="url(#SVGID_6_)" id="svg_7"/><path d="m399.089 502c0-100.359-66.302-181.716-148.089-181.716s-148.089 81.357-148.089 181.716z" fill="url(#SVGID_7_)" id="svg_8"/><path d="m131.866 394.059c34.989 21.687 76.125 33.35 119.134 33.35 18.997 0 37.627-2.28 55.525-6.69 9.527-2.348 14.917-12.442 11.576-21.668-2.872-7.929-11.259-12.438-19.445-10.411-15.188 3.76-31.165 5.77-47.656 5.77-36.715 0-70.88-9.95-99.454-27.047-7.253 8.071-13.847 17.017-19.68 26.696z" fill="#e05d6f" id="svg_9"/><path d="m251 394.408c-3.536 9.396-21.333 28.633-32.978 39.697-5.239 4.978-13.311 5.565-19.155 1.315-25.344-18.43-46.981-58.098-21.458-91.144z" fill="url(#SVGID_8_)" id="svg_10"/><path d="m179.929 416.286c14.861 4.815 30.33 8.111 46.186 9.798 10.495-10.802 22.103-24.283 24.885-31.676-30.711 0-59.638-6.96-85.001-19.241-.454 14.756 5.32 29.187 13.93 41.119z" fill="#f2e07e" id="svg_11"/><path d="m251 394.408c3.536 9.396 21.333 28.633 32.978 39.697 5.239 4.978 13.311 5.565 19.155 1.315 25.344-18.43 46.981-58.098 21.457-91.144z" fill="url(#SVGID_9_)" id="svg_12"/><path d="m306.525 420.718c9.527-2.348 14.917-12.442 11.576-21.668-2.872-7.929-11.259-12.438-19.445-10.411-15.188 3.76-31.165 5.77-47.656 5.77 2.78 7.388 14.377 20.859 24.868 31.658 10.404-1.108 20.648-2.883 30.657-5.349z" fill="#f2e07e" id="svg_13"/><ellipse cx="251" cy="228.5019989013672" fill="url(#SVGID_10_)" rx="181.71600341796875" ry="165.906005859375" id="svg_14"/><g id="svg_15"><ellipse cx="163.11500549316406" cy="259.0060119628906" fill="#eaadcd" rx="14.935999870300293" ry="12.003000259399414" id="svg_16"/><ellipse cx="338.885986328125" cy="259.0060119628906" fill="#eaadcd" rx="14.935999870300293" ry="12.003000259399414" id="svg_17"/><circle cx="188.7209930419922" cy="229.38800048828125" fill="#fff" r="29.618000030517578" id="svg_18"/><circle cx="313.27899169921875" cy="229.38800048828125" fill="#fff" r="29.618000030517578" id="svg_19"/><g fill="#3b3b44" id="svg_20"><g id="svg_21"><circle cx="188.7209930419922" cy="229.38800048828125" r="17.652000427246094" id="svg_22"/><circle cx="313.27899169921875" cy="229.38800048828125" r="17.652000427246094" id="svg_23"/></g><path d="m251 259.948c-5.247 0-10.495-1.984-14.775-5.954-2.025-1.877-2.145-5.041-.267-7.066 1.877-2.025 5.042-2.143 7.065-.267 4.697 4.354 11.256 4.354 15.953 0 2.023-1.876 5.188-1.759 7.065.267 1.878 2.025 1.759 5.189-.267 7.066-4.279 3.969-9.527 5.954-14.774 5.954z" id="svg_24"/></g></g><g id="svg_25"><path d="m167.701 332.239c-1.746 0-3.52-.36-5.217-1.119-46.619-20.857-97.231-71.378-99.473-150.625-.199-7.062 5.364-12.95 12.426-13.15 7.04-.208 12.949 5.363 13.15 12.426.889 31.424 10.43 59.422 28.359 83.212 14.467 19.197 34.35 35.101 55.987 44.782 6.45 2.885 9.339 10.452 6.453 16.901-2.127 4.754-6.796 7.573-11.685 7.573z" fill="#e05d6f" id="svg_26"/><path d="m334.3 332.239c-4.89 0-9.558-2.819-11.684-7.572-2.886-6.449.003-14.016 6.453-16.901 21.637-9.681 41.52-25.585 55.987-44.782 17.929-23.791 27.47-51.788 28.359-83.212.2-7.062 6.063-12.624 13.15-12.426 7.062.2 12.625 6.087 12.426 13.15-2.242 79.246-52.854 129.768-99.473 150.625-1.697.758-3.472 1.118-5.218 1.118z" fill="#e05d6f" id="svg_27"/><path d="m250.349 405.425c74.523 0 108.43-43.738 100.429-85.343-8.001-41.604-73.608-79.147-100.429-79.147s-92.428 37.542-100.429 79.147 25.906 85.343 100.429 85.343z" fill="url(#SVGID_11_)" id="svg_28"/><g fill="#c2c8cf" id="svg_29"><path d="m277.022 312.805h-53.346c-7.065 0-12.793-5.728-12.793-12.793s5.728-12.793 12.793-12.793h53.346c7.065 0 12.793 5.728 12.793 12.793s-5.728 12.793-12.793 12.793z" id="svg_30"/><path d="m288.502 364.565h-76.306c-7.065 0-12.793-5.728-12.793-12.793s5.728-12.793 12.793-12.793h76.306c7.065 0 12.793 5.728 12.793 12.793s-5.728 12.793-12.793 12.793z" id="svg_31"/></g></g><path d="m423.64 75.621c-3.202-1.236-5.473-4.073-6.004-7.464-3.975-25.334-25.896-44.713-52.346-44.713-9.961 0-19.27 2.759-27.225 7.545-3.899 2.346-8.876 1.395-11.902-2.005-15.466-17.38-43.333-28.984-75.163-28.984s-59.697 11.605-75.163 28.984c-3.025 3.399-8.003 4.351-11.902 2.005-7.955-4.786-17.263-7.545-27.224-7.545-26.45 0-48.372 19.379-52.346 44.713-.532 3.39-2.803 6.228-6.005 7.464-22.162 8.555-37.966 30.839-37.966 56.986 0 33.54 26.002 60.73 58.078 60.73 30.746 0 54.922-17.581 63.217-41.906 1.604-4.702 6.613-7.289 11.411-5.999 24.968 6.716 53.076 1.566 71.834-13.902 3.536-2.915 8.598-2.915 12.134 0 18.749 15.459 46.854 20.622 71.834 13.902 4.798-1.291 9.807 1.297 11.41 5.999 8.296 24.324 32.471 41.906 63.217 41.906 32.076 0 58.078-27.19 58.078-60.73-.001-26.147-15.804-48.431-37.967-56.986z" fill="url(#SVGID_12_)" id="svg_32"/><path d="m138.181 235.66c-.524 0-1.056-.041-1.59-.127-11.23-1.794-20.721-4.646-29.015-8.721-4.956-2.435-7-8.428-4.566-13.385 2.436-4.956 8.427-7.003 13.386-4.565 6.478 3.183 14.115 5.447 23.349 6.921 5.453.871 9.169 5.998 8.298 11.452-.785 4.92-5.035 8.425-9.862 8.425z" fill="#e8aa70" id="svg_33"/><path d="m363.819 235.66c-4.828 0-9.076-3.505-9.862-8.425-.871-5.454 2.845-10.581 8.298-11.452 9.233-1.474 16.871-3.738 23.349-6.921 4.958-2.436 10.949-.392 13.386 4.565 2.435 4.957.391 10.95-4.565 13.385-8.294 4.075-17.785 6.927-29.015 8.721-.535.086-1.066.127-1.591.127z" fill="#e8aa70" id="svg_34"/><circle cx="251" cy="467.82000732421875" fill="url(#SVGID_13_)" r="16.30900001525879" id="svg_35"/></g></g></svg>